# xmcd CD database file
#
# Track frame offsets:
#	150
#	23634
#	49296
#	81149
#	103743
#	122043
#	146124
#	172219
#	225149
#	242075
#	256830
#	286267
#	311950
#	335093
#
# Disc length: 4711 seconds
#
# Revision: 3
# Processed by: cddbd v1.5PL3 Copyright (c) Steve Scherf et al.
# Submitted via: CDex 1.51
#
DISCID=c812650e
DTITLE=Tom Waits - At The Cirkus - 14th July 1999 - Stockholm, Sweden Cd1
DYEAR=1999
DGENRE=Other
TTITLE0=Shore Leave
TTITLE1=Pony
TTITLE2=Filipino Box Spring Hog
TTITLE3=Come On Up To The House
TTITLE4=House Where Nobody Lives
TTITLE5=Singapore
TTITLE6=The Heart Of Saturday Night
TTITLE7=Going Out West
TTITLE8=I Can't Wait To Get Off Work
TTITLE9=Picture In A Frame
TTITLE10=Who Are You
TTITLE11=Heartattack And Vine
TTITLE12=Time
TTITLE13=Chocolate Jesus
EXTD=YEAR: 1999
EXTT0=
EXTT1=
EXTT2=
EXTT3=
EXTT4=
EXTT5=
EXTT6=
EXTT7=
EXTT8=
EXTT9=
EXTT10=
EXTT11=
EXTT12=
EXTT13=
PLAYORDER=
